<svg version="1.1" id="Layer_1" xmlns="http://www.w3.org/2000/svg" xmlns:xlink="http://www.w3.org/1999/xlink" x="0px" y="0px"
	 width="100%" viewBox="0 0 512 512" enable-background="new 0 0 512 512" xml:space="preserve">
<path fill="#000000" opacity="1.000000" stroke="none" 
	d="
M1.000000,475.000000 
	C1.000000,317.046051 1.000000,159.092087 1.000000,1.069063 
	C171.570862,1.069063 342.141754,1.069063 513.000000,1.069063 
	C513.000000,158.691452 513.000000,316.383087 512.638672,474.703674 
	C508.957977,474.222351 505.665497,472.259308 502.314301,472.153351 
	C489.581696,471.750763 476.830109,471.948578 464.047394,471.460693 
	C463.950287,465.662537 463.891388,460.325623 463.907043,454.526062 
	C463.987762,376.088623 463.904358,298.113647 464.111725,220.139420 
	C464.138123,210.225723 457.791290,207.021347 450.860352,207.008514 
	C435.032196,206.979172 419.200684,206.805313 403.376862,207.069107 
	C393.280060,207.237442 388.999725,210.141434 388.999542,221.576294 
	C388.998291,297.551788 388.997711,373.527252 389.005920,449.502747 
	C389.006104,451.331451 389.111023,453.160156 389.092773,455.452026 
	C388.989044,461.273438 388.959656,466.631653 388.465973,471.994354 
	C375.694946,471.974701 363.388153,471.950592 351.047546,471.464325 
	C350.953461,465.660583 350.893188,460.319031 350.903839,454.514984 
	C350.983215,394.225861 350.995758,334.399170 350.995483,274.572510 
	C350.995422,266.084534 346.863617,262.009369 338.289246,262.002899 
	C321.957703,261.990570 305.626190,261.996185 289.294647,262.000397 
	C279.828918,262.002838 276.000580,265.892120 276.000275,275.508545 
	C275.998322,333.168854 275.997498,390.829132 276.006439,448.489441 
	C276.006775,450.652130 276.111511,452.814850 276.096985,455.441864 
	C275.995880,461.243408 275.965424,466.580627 275.471375,471.949890 
	C262.671570,471.934021 250.335297,471.886139 237.999329,471.383179 
	C237.943924,465.614960 237.888245,460.301819 237.905991,454.525879 
	C237.986252,434.065918 237.995972,414.068787 237.999161,394.071655 
	C238.002609,372.408020 238.017426,350.744324 237.990677,329.080719 
	C237.981140,321.359955 233.754807,317.006958 226.367645,317.003021 
	C209.036728,316.993835 191.705795,316.989410 174.374893,317.005157 
	C167.123886,317.011749 163.017548,321.184784 163.003128,328.519073 
	C162.989044,335.684723 162.990921,342.850403 163.001633,350.016083 
	C163.053940,385.007294 163.111511,419.998535 163.094009,455.452881 
	C162.986481,461.253387 162.952179,466.590729 162.455139,471.956238 
	C149.661057,471.936676 137.329727,471.888977 124.998795,471.386719 
	C124.941605,465.614838 124.884018,460.297485 124.901703,454.518127 
	C124.984352,431.075073 125.235565,408.090393 124.891617,385.114655 
	C124.730530,374.354401 121.818451,371.639862 112.205635,371.205688 
	C95.752769,370.462585 79.240189,370.854553 62.756374,371.062592 
	C54.497719,371.166809 50.049477,375.134949 50.037830,382.052765 
	C49.996902,406.361877 50.112366,430.671265 50.093941,455.444183 
	C49.981434,461.252594 49.943459,466.597321 49.443253,471.964844 
	C39.066696,471.992310 29.152359,471.988159 19.238056,472.004944 
	C12.998950,472.015503 6.618882,471.199615 1.000000,475.000000 
M77.182968,249.010773 
	C72.246689,251.439911 70.797882,254.753159 72.034988,260.783600 
	C72.831894,264.668182 77.165291,268.069519 81.482277,267.948364 
	C83.247437,267.898804 84.985245,267.217865 86.757362,267.019653 
	C102.061432,265.307617 117.564095,264.638306 132.630875,261.716095 
	C153.172928,257.731934 173.552948,252.638199 193.696564,246.939041 
	C223.110794,238.616959 251.078308,226.534317 277.465302,211.059113 
	C288.824829,204.397079 300.048340,197.379272 310.667084,189.611832 
	C322.017853,181.308899 332.789154,172.169586 343.423126,162.945419 
	C351.429047,156.000870 359.279480,148.761749 366.369293,140.904922 
	C375.668640,130.599426 384.152039,119.557594 393.630096,109.135719 
	C400.304047,113.797752 406.883820,118.605865 413.721710,123.013535 
	C415.322052,124.045113 418.352203,124.627045 419.726044,123.785591 
	C421.375458,122.775322 422.904999,119.988327 422.838257,118.026756 
	C422.524872,108.820641 421.710846,99.628342 420.946625,90.441849 
	C420.375244,83.573776 419.651306,76.717339 418.917114,69.864098 
	C417.643250,57.973103 416.068115,46.108326 415.091187,34.193859 
	C414.514252,27.157721 411.758331,24.741310 404.937683,26.509531 
	C382.312897,32.374878 359.675323,38.190907 337.053040,44.065922 
	C332.343170,45.289078 327.563019,46.387241 323.045105,48.136692 
	C321.068146,48.902218 318.124146,51.414833 318.333466,52.687840 
	C318.753876,55.244827 320.541962,58.147152 322.646637,59.750103 
	C328.959747,64.558220 335.696930,68.809486 342.322144,73.314461 
	C331.723358,90.935745 319.130035,106.211281 305.100403,120.279221 
	C297.760956,127.638718 290.107605,134.757324 282.046204,141.308105 
	C269.373383,151.606155 256.562012,161.794617 243.225800,171.202362 
	C217.588089,189.287888 190.043594,204.162735 161.376038,216.823044 
	C143.708298,224.625565 125.669235,231.607742 107.664902,238.619324 
	C97.895348,242.423965 87.849388,245.518860 77.182968,249.010773 
z"/>
<path fill="#000000" opacity="1.000000" stroke="none" 
	d="
M513.000000,486.000000 
	C513.000000,494.993042 513.000000,503.986084 513.000000,512.958618 
	C342.333344,512.958618 171.666656,512.958618 1.000000,512.958618 
	C1.000000,504.257263 1.000000,495.597290 1.380287,486.316895 
	C4.894915,486.464508 8.028806,487.902496 11.163661,487.904602 
	C173.327576,488.013641 335.491577,488.019043 497.655518,487.916748 
	C502.770752,487.913544 507.885193,486.666962 513.000000,486.000000 
z"/>
<path fill="#407093" opacity="1.000000" stroke="none" 
	d="
M513.000000,485.541931 
	C507.885193,486.666962 502.770752,487.913544 497.655518,487.916748 
	C335.491577,488.019043 173.327576,488.013641 11.163661,487.904602 
	C8.028806,487.902496 4.894915,486.464508 1.380287,485.848236 
	C1.000000,482.638702 1.000000,479.277435 1.000000,475.458069 
	C6.618882,471.199615 12.998950,472.015503 19.238056,472.004944 
	C29.152359,471.988159 39.066696,471.992310 49.762390,472.247009 
	C51.191948,472.626251 51.840034,472.850342 52.488346,472.850983 
	C75.245544,472.873779 98.002800,472.894073 120.759857,472.835724 
	C122.173546,472.832123 123.585594,472.187592 124.998405,471.841278 
	C137.329727,471.888977 149.661057,471.936676 162.787781,472.219543 
	C164.392181,472.594818 165.201080,472.856506 166.010223,472.857361 
	C188.594589,472.881012 211.179016,472.896912 233.763229,472.835205 
	C235.176056,472.831360 236.587143,472.185486 237.999039,471.838287 
	C250.335297,471.886139 262.671570,471.934021 275.813690,472.193817 
	C277.422760,472.573303 278.225739,472.886261 279.029144,472.887268 
	C301.799347,472.915924 324.569641,472.928741 347.339752,472.873322 
	C348.587738,472.870270 349.834198,472.256134 351.081390,471.926453 
	C363.388153,471.950592 375.694946,471.974701 388.852783,472.163208 
	C390.669159,472.517334 391.634186,472.871246 392.599731,472.872681 
	C415.185760,472.906586 437.771851,472.917908 460.357788,472.863159 
	C461.601135,472.860168 462.843018,472.249664 464.085602,471.921936 
	C476.830109,471.948578 489.581696,471.750763 502.314301,472.153351 
	C505.665497,472.259308 508.957977,474.222351 512.638672,475.166321 
	C513.000000,478.361298 513.000000,481.722565 513.000000,485.541931 
z"/>
<path fill="#8BCAFF" opacity="1.000000" stroke="none" 
	d="
M389.167084,454.988861 
	C389.111023,453.160156 389.006104,451.331451 389.005920,449.502747 
	C388.997711,373.527252 388.998291,297.551788 388.999542,221.576294 
	C388.999725,210.141434 393.280060,207.237442 403.376862,207.069107 
	C419.200684,206.805313 435.032196,206.979172 450.860352,207.008514 
	C457.791290,207.021347 464.138123,210.225723 464.111725,220.139420 
	C463.904358,298.113647 463.987762,376.088623 463.449066,454.528442 
	C438.333374,454.991913 413.750214,454.990387 389.167084,454.988861 
z"/>
<path fill="#FF4755" opacity="1.000000" stroke="none" 
	d="
M77.928116,248.933929 
	C87.849388,245.518860 97.895348,242.423965 107.664902,238.619324 
	C125.669235,231.607742 143.708298,224.625565 161.376038,216.823044 
	C190.043594,204.162735 217.588089,189.287888 243.225800,171.202362 
	C256.562012,161.794617 269.373383,151.606155 282.046204,141.308105 
	C290.107605,134.757324 297.760956,127.638718 305.100403,120.279221 
	C319.130035,106.211281 331.723358,90.935745 342.322144,73.314461 
	C335.696930,68.809486 328.959747,64.558220 322.646637,59.750103 
	C320.541962,58.147152 318.753876,55.244827 318.333466,52.687840 
	C318.124146,51.414833 321.068146,48.902218 323.045105,48.136692 
	C327.563019,46.387241 332.343170,45.289078 337.053040,44.065922 
	C359.675323,38.190907 382.312897,32.374878 404.937683,26.509531 
	C411.758331,24.741310 414.514252,27.157721 415.091187,34.193859 
	C416.068115,46.108326 417.643250,57.973103 418.917114,69.864098 
	C419.651306,76.717339 420.375244,83.573776 420.946625,90.441849 
	C421.710846,99.628342 422.524872,108.820641 422.838257,118.026756 
	C422.904999,119.988327 421.375458,122.775322 419.726044,123.785591 
	C418.352203,124.627045 415.322052,124.045113 413.721710,123.013535 
	C406.883820,118.605865 400.304047,113.797752 393.134521,108.705978 
	C390.154327,106.345810 387.715485,104.352676 385.174286,102.499931 
	C381.544861,99.853828 378.459808,100.604736 375.623596,103.985413 
	C366.551300,114.799355 357.382111,125.531937 348.264648,136.308060 
	C334.315674,152.794662 317.676178,166.325272 300.509521,179.188980 
	C283.424042,191.991867 264.987091,202.590790 245.679016,211.771027 
	C226.957382,220.672424 207.654556,228.045303 187.576614,232.877274 
	C167.745407,237.649872 147.659286,241.629959 127.488426,244.640808 
	C111.119438,247.084183 94.459190,247.576370 77.928116,248.933929 
z"/>
<path fill="#98DB7C" opacity="1.000000" stroke="none" 
	d="
M276.167603,454.977539 
	C276.111511,452.814850 276.006775,450.652130 276.006439,448.489441 
	C275.997498,390.829132 275.998322,333.168854 276.000275,275.508545 
	C276.000580,265.892120 279.828918,262.002838 289.294647,262.000397 
	C305.626190,261.996185 321.957703,261.990570 338.289246,262.002899 
	C346.863617,262.009369 350.995422,266.084534 350.995483,274.572510 
	C350.995758,334.399170 350.983215,394.225861 350.445984,454.519958 
	C325.334015,454.984100 300.750793,454.980804 276.167603,454.977539 
z"/>
<path fill="#FFBA57" opacity="1.000000" stroke="none" 
	d="
M163.167236,454.989746 
	C163.111511,419.998535 163.053940,385.007294 163.001633,350.016083 
	C162.990921,342.850403 162.989044,335.684723 163.003128,328.519073 
	C163.017548,321.184784 167.123886,317.011749 174.374893,317.005157 
	C191.705795,316.989410 209.036728,316.993835 226.367645,317.003021 
	C233.754807,317.006958 237.981140,321.359955 237.990677,329.080719 
	C238.017426,350.744324 238.002609,372.408020 237.999161,394.071655 
	C237.995972,414.068787 237.986252,434.065918 237.448044,454.528381 
	C212.333527,454.992371 187.750366,454.991058 163.167236,454.989746 
z"/>
<path fill="#FFE27A" opacity="1.000000" stroke="none" 
	d="
M50.168472,454.980530 
	C50.112366,430.671265 49.996902,406.361877 50.037830,382.052765 
	C50.049477,375.134949 54.497719,371.166809 62.756374,371.062592 
	C79.240189,370.854553 95.752769,370.462585 112.205635,371.205688 
	C121.818451,371.639862 124.730530,374.354401 124.891617,385.114655 
	C125.235565,408.090393 124.984352,431.075073 124.444099,454.521729 
	C99.330307,454.985107 74.749390,454.982819 50.168472,454.980530 
z"/>
<path fill="#FC2B3A" opacity="1.000000" stroke="none" 
	d="
M77.555542,248.972351 
	C94.459190,247.576370 111.119438,247.084183 127.488426,244.640808 
	C147.659286,241.629959 167.745407,237.649872 187.576614,232.877274 
	C207.654556,228.045303 226.957382,220.672424 245.679016,211.771027 
	C264.987091,202.590790 283.424042,191.991867 300.509521,179.188980 
	C317.676178,166.325272 334.315674,152.794662 348.264648,136.308060 
	C357.382111,125.531937 366.551300,114.799355 375.623596,103.985413 
	C378.459808,100.604736 381.544861,99.853828 385.174286,102.499931 
	C387.715485,104.352676 390.154327,106.345810 392.812653,108.554344 
	C384.152039,119.557594 375.668640,130.599426 366.369293,140.904922 
	C359.279480,148.761749 351.429047,156.000870 343.423126,162.945419 
	C332.789154,172.169586 322.017853,181.308899 310.667084,189.611832 
	C300.048340,197.379272 288.824829,204.397079 277.465302,211.059113 
	C251.078308,226.534317 223.110794,238.616959 193.696564,246.939041 
	C173.552948,252.638199 153.172928,257.731934 132.630875,261.716095 
	C117.564095,264.638306 102.061432,265.307617 86.757362,267.019653 
	C84.985245,267.217865 83.247437,267.898804 81.482277,267.948364 
	C77.165291,268.069519 72.831894,264.668182 72.034988,260.783600 
	C70.797882,254.753159 72.246689,251.439911 77.555542,248.972351 
z"/>
<path fill="#82D361" opacity="1.000000" stroke="none" 
	d="
M276.096985,455.441864 
	C300.750793,454.980804 325.334015,454.984100 350.375061,454.982422 
	C350.893188,460.319031 350.953461,465.660583 351.047546,471.464294 
	C349.834198,472.256134 348.587738,472.870270 347.339752,472.873322 
	C324.569641,472.928741 301.799347,472.915924 279.029144,472.887268 
	C278.225739,472.886261 277.422760,472.573303 276.277283,472.161804 
	C275.965424,466.580627 275.995880,461.243408 276.096985,455.441864 
z"/>
<path fill="#F9CF58" opacity="1.000000" stroke="none" 
	d="
M50.093941,455.444183 
	C74.749390,454.982819 99.330307,454.985107 124.368835,454.983765 
	C124.884018,460.297485 124.941605,465.614838 124.998795,471.386719 
	C123.585594,472.187592 122.173546,472.832123 120.759857,472.835724 
	C98.002800,472.894073 75.245544,472.873779 52.488346,472.850983 
	C51.840034,472.850342 51.191948,472.626251 50.224617,472.224213 
	C49.943459,466.597321 49.981434,461.252594 50.093941,455.444183 
z"/>
<path fill="#FFAC3E" opacity="1.000000" stroke="none" 
	d="
M163.093994,455.452881 
	C187.750366,454.991058 212.333527,454.992371 237.374619,454.991180 
	C237.888245,460.301819 237.943924,465.614960 237.999329,471.383179 
	C236.587143,472.185486 235.176056,472.831360 233.763229,472.835205 
	C211.179016,472.896912 188.594589,472.881012 166.010223,472.857361 
	C165.201080,472.856506 164.392181,472.594818 163.250519,472.191406 
	C162.952179,466.590729 162.986481,461.253387 163.093994,455.452881 
z"/>
<path fill="#6CC4FF" opacity="1.000000" stroke="none" 
	d="
M389.092773,455.452026 
	C413.750214,454.990387 438.333374,454.991913 463.374512,454.991089 
	C463.891388,460.325623 463.950287,465.662537 464.047394,471.460693 
	C462.843018,472.249664 461.601135,472.860168 460.357788,472.863159 
	C437.771851,472.917908 415.185760,472.906586 392.599731,472.872681 
	C391.634186,472.871246 390.669159,472.517334 389.317078,472.158752 
	C388.959656,466.631653 388.989044,461.273438 389.092773,455.452026 
z"/>
</svg>